<?xml version="1.0" encoding="utf-8"?>
<svg xmlns="http://www.w3.org/2000/svg" width="2330px" height="1000px" viewBox="0 0 2330 1000" xmlns:bx="https://boxy-svg.com">
  <defs>
    <bx:guide x="2230" y="735.105" angle="-180"/>
    <bx:export>
      <bx:file format="svg" path="Sem título.svg"/>
    </bx:export>
  </defs>
  <path d="M 100 223.077 L 196.703 293.407 L 438.462 776.923 L 680.22 293.407 L 776.923 223.077 L 438.462 900 L 100 223.077 Z M 438.462 469.231 L 680.22 293.407 L 776.923 100 L 438.462 346.154 L 100 100 L 196.703 293.407 L 438.462 469.231 Z" style="stroke: rgb(255, 255, 255); stroke-width: 0px; stroke-opacity: 0; fill-rule: nonzero; paint-order: fill;">
    <title>Seta</title>
  </path>
  <path d="M 610.89 692.041 Q 610.89 664.321 621.945 642.871 Q 633 621.421 651.975 609.871 Q 670.95 598.321 694.38 598.321 Q 714.84 598.321 730.185 606.571 Q 745.53 614.821 754.77 627.361 L 754.77 601.291 L 801.3 601.291 L 801.3 784.111 L 754.77 784.111 L 754.77 757.381 Q 745.86 770.251 730.185 778.666 Q 714.51 787.081 694.05 787.081 Q 670.95 787.081 651.975 775.201 Q 633 763.321 621.945 741.706 Q 610.89 720.091 610.89 692.041 Z M 754.77 692.701 Q 754.77 675.871 748.17 663.826 Q 741.57 651.781 730.35 645.346 Q 719.13 638.911 706.26 638.911 Q 693.39 638.911 682.5 645.181 Q 671.61 651.451 664.845 663.496 Q 658.08 675.541 658.08 692.041 Q 658.08 708.541 664.845 720.916 Q 671.61 733.291 682.665 739.891 Q 693.72 746.491 706.26 746.491 Q 719.13 746.491 730.35 740.056 Q 741.57 733.621 748.17 721.576 Q 754.77 709.531 754.77 692.701 Z M 947.799 598.651 Q 980.469 598.651 1000.599 619.276 Q 1020.729 639.901 1020.729 676.861 L 1020.729 784.111 L 974.529 784.111 L 974.529 683.131 Q 974.529 661.351 963.639 649.636 Q 952.749 637.921 933.939 637.921 Q 914.799 637.921 903.744 649.636 Q 892.689 661.351 892.689 683.131 L 892.689 784.111 L 846.489 784.111 L 846.489 601.291 L 892.689 601.291 L 892.689 624.061 Q 901.929 612.181 916.284 605.416 Q 930.639 598.651 947.799 598.651 Z M 1136.229 598.321 Q 1156.689 598.321 1172.199 606.406 Q 1187.709 614.491 1196.619 627.361 L 1196.619 601.291 L 1243.149 601.291 L 1243.149 785.431 Q 1243.149 810.841 1232.919 830.806 Q 1222.689 850.771 1202.229 862.486 Q 1181.769 874.201 1152.729 874.201 Q 1113.789 874.201 1088.874 856.051 Q 1063.959 837.901 1060.659 806.551 L 1106.529 806.551 Q 1110.159 819.091 1122.204 826.516 Q 1134.249 833.941 1151.409 833.941 Q 1171.539 833.941 1184.079 821.896 Q 1196.619 809.851 1196.619 785.431 L 1196.619 757.051 Q 1187.709 769.921 1172.034 778.501 Q 1156.359 787.081 1136.229 787.081 Q 1113.129 787.081 1093.989 775.201 Q 1074.849 763.321 1063.794 741.706 Q 1052.739 720.091 1052.739 692.041 Q 1052.739 664.321 1063.794 642.871 Q 1074.849 621.421 1093.824 609.871 Q 1112.799 598.321 1136.229 598.321 Z M 1196.619 692.701 Q 1196.619 675.871 1190.019 663.826 Q 1183.419 651.781 1172.199 645.346 Q 1160.979 638.911 1148.109 638.911 Q 1135.239 638.911 1124.349 645.181 Q 1113.459 651.451 1106.694 663.496 Q 1099.929 675.541 1099.929 692.041 Q 1099.929 708.541 1106.694 720.916 Q 1113.459 733.291 1124.514 739.891 Q 1135.569 746.491 1148.109 746.491 Q 1160.979 746.491 1172.199 740.056 Q 1183.419 733.621 1190.019 721.576 Q 1196.619 709.531 1196.619 692.701 Z M 1460.928 601.291 L 1460.928 784.111 L 1414.398 784.111 L 1414.398 761.011 Q 1405.488 772.891 1391.133 779.656 Q 1376.778 786.421 1359.948 786.421 Q 1338.498 786.421 1321.998 777.346 Q 1305.498 768.271 1296.093 750.616 Q 1286.688 732.961 1286.688 708.541 L 1286.688 601.291 L 1332.888 601.291 L 1332.888 701.941 Q 1332.888 723.721 1343.778 735.436 Q 1354.668 747.151 1373.478 747.151 Q 1392.618 747.151 1403.508 735.436 Q 1414.398 723.721 1414.398 701.941 L 1414.398 601.291 Z M 1494.588 692.041 Q 1494.588 664.321 1505.643 642.871 Q 1516.698 621.421 1535.673 609.871 Q 1554.648 598.321 1578.078 598.321 Q 1598.538 598.321 1613.883 606.571 Q 1629.228 614.821 1638.468 627.361 L 1638.468 601.291 L 1684.998 601.291 L 1684.998 784.111 L 1638.468 784.111 L 1638.468 757.381 Q 1629.558 770.251 1613.883 778.666 Q 1598.208 787.081 1577.748 787.081 Q 1554.648 787.081 1535.673 775.201 Q 1516.698 763.321 1505.643 741.706 Q 1494.588 720.091 1494.588 692.041 Z M 1638.468 692.701 Q 1638.468 675.871 1631.868 663.826 Q 1625.268 651.781 1614.048 645.346 Q 1602.828 638.911 1589.958 638.911 Q 1577.088 638.911 1566.198 645.181 Q 1555.308 651.451 1548.543 663.496 Q 1541.778 675.541 1541.778 692.041 Q 1541.778 708.541 1548.543 720.916 Q 1555.308 733.291 1566.363 739.891 Q 1577.418 746.491 1589.958 746.491 Q 1602.828 746.491 1614.048 740.056 Q 1625.268 733.621 1631.868 721.576 Q 1638.468 709.531 1638.468 692.701 Z M 1776.387 629.671 Q 1785.297 615.151 1799.652 606.901 Q 1814.007 598.651 1832.487 598.651 L 1832.487 647.161 L 1820.277 647.161 Q 1798.497 647.161 1787.442 657.391 Q 1776.387 667.621 1776.387 693.031 L 1776.387 784.111 L 1730.187 784.111 L 1730.187 601.291 L 1776.387 601.291 L 1776.387 629.671 Z M 1851.64 692.041 Q 1851.64 664.321 1862.695 642.871 Q 1873.75 621.421 1892.89 609.871 Q 1912.03 598.321 1935.46 598.321 Q 1953.28 598.321 1969.45 606.076 Q 1985.62 613.831 1995.19 626.701 L 1995.19 539.911 L 2042.05 539.911 L 2042.05 784.111 L 1995.19 784.111 L 1995.19 757.051 Q 1986.61 770.581 1971.1 778.831 Q 1955.59 787.081 1935.13 787.081 Q 1912.03 787.081 1892.89 775.201 Q 1873.75 763.321 1862.695 741.706 Q 1851.64 720.091 1851.64 692.041 Z M 1995.52 692.701 Q 1995.52 675.871 1988.92 663.826 Q 1982.32 651.781 1971.1 645.346 Q 1959.88 638.911 1947.01 638.911 Q 1934.14 638.911 1923.25 645.181 Q 1912.36 651.451 1905.595 663.496 Q 1898.83 675.541 1898.83 692.041 Q 1898.83 708.541 1905.595 720.916 Q 1912.36 733.291 1923.415 739.891 Q 1934.47 746.491 1947.01 746.491 Q 1959.88 746.491 1971.1 740.056 Q 1982.32 733.621 1988.92 721.576 Q 1995.52 709.531 1995.52 692.701 Z M 2157.199 787.081 Q 2134.759 787.081 2116.939 778.996 Q 2099.119 770.911 2088.724 757.051 Q 2078.329 743.191 2077.339 726.361 L 2123.869 726.361 Q 2125.189 736.921 2134.264 743.851 Q 2143.339 750.781 2156.869 750.781 Q 2170.069 750.781 2177.494 745.501 Q 2184.919 740.221 2184.919 731.971 Q 2184.919 723.061 2175.844 718.606 Q 2166.769 714.151 2146.969 708.871 Q 2126.509 703.921 2113.474 698.641 Q 2100.439 693.361 2091.034 682.471 Q 2081.629 671.581 2081.629 653.101 Q 2081.629 637.921 2090.374 625.381 Q 2099.119 612.841 2115.454 605.581 Q 2131.789 598.321 2153.899 598.321 Q 2186.569 598.321 2206.039 614.656 Q 2225.509 630.991 2227.489 658.711 L 2183.269 658.711 Q 2182.279 647.821 2174.194 641.386 Q 2166.109 634.951 2152.579 634.951 Q 2140.039 634.951 2133.274 639.571 Q 2126.509 644.191 2126.509 652.441 Q 2126.509 661.681 2135.749 666.466 Q 2144.989 671.251 2164.459 676.201 Q 2184.259 681.151 2197.129 686.431 Q 2209.999 691.711 2219.404 702.766 Q 2228.809 713.821 2229.139 731.971 Q 2229.139 747.811 2220.394 760.351 Q 2211.649 772.891 2195.314 779.986 Q 2178.979 787.081 2157.199 787.081 Z"/>
  <path d="M 969.643 352.297 Q 969.643 362.197 968.323 370.117 L 834.673 370.117 Q 836.323 389.917 848.533 401.137 Q 860.743 412.357 878.563 412.357 Q 904.303 412.357 915.193 390.247 L 965.023 390.247 Q 957.103 416.647 934.663 433.642 Q 912.223 450.637 879.553 450.637 Q 853.153 450.637 832.198 438.922 Q 811.243 427.207 799.528 405.757 Q 787.813 384.307 787.813 356.257 Q 787.813 327.877 799.363 306.427 Q 810.913 284.977 831.703 273.427 Q 852.493 261.877 879.553 261.877 Q 905.623 261.877 926.248 273.097 Q 946.873 284.317 958.258 304.942 Q 969.643 325.567 969.643 352.297 Z M 921.793 339.097 Q 921.463 321.277 908.923 310.552 Q 896.383 299.827 878.233 299.827 Q 861.073 299.827 849.358 310.222 Q 837.643 320.617 835.003 339.097 Z M 1049.483 203.467 L 1049.483 447.667 L 1003.283 447.667 L 1003.283 203.467 Z M 1176.194 450.637 Q 1149.794 450.637 1128.674 438.922 Q 1107.554 427.207 1095.509 405.757 Q 1083.464 384.307 1083.464 356.257 Q 1083.464 328.207 1095.839 306.757 Q 1108.214 285.307 1129.664 273.592 Q 1151.114 261.877 1177.514 261.877 Q 1203.914 261.877 1225.364 273.592 Q 1246.814 285.307 1259.189 306.757 Q 1271.564 328.207 1271.564 356.257 Q 1271.564 384.307 1258.859 405.757 Q 1246.154 427.207 1224.539 438.922 Q 1202.924 450.637 1176.194 450.637 Z M 1176.194 410.377 Q 1188.734 410.377 1199.789 404.272 Q 1210.844 398.167 1217.444 385.957 Q 1224.044 373.747 1224.044 356.257 Q 1224.044 330.187 1210.349 316.162 Q 1196.654 302.137 1176.854 302.137 Q 1157.054 302.137 1143.689 316.162 Q 1130.324 330.187 1130.324 356.257 Q 1130.324 382.327 1143.359 396.352 Q 1156.394 410.377 1176.194 410.377 Z M 1293.657 356.257 Q 1293.657 327.877 1305.207 306.592 Q 1316.757 285.307 1337.217 273.592 Q 1357.677 261.877 1384.077 261.877 Q 1418.067 261.877 1440.342 278.872 Q 1462.617 295.867 1470.207 326.557 L 1420.377 326.557 Q 1416.417 314.677 1407.012 307.912 Q 1397.607 301.147 1383.747 301.147 Q 1363.947 301.147 1352.397 315.502 Q 1340.847 329.857 1340.847 356.257 Q 1340.847 382.327 1352.397 396.682 Q 1363.947 411.037 1383.747 411.037 Q 1411.797 411.037 1420.377 385.957 L 1470.207 385.957 Q 1462.617 415.657 1440.177 433.147 Q 1417.737 450.637 1384.077 450.637 Q 1357.677 450.637 1337.217 438.922 Q 1316.757 427.207 1305.207 405.922 Q 1293.657 384.637 1293.657 356.257 Z M 1527.64 243.067 Q 1515.43 243.067 1507.345 235.312 Q 1499.26 227.557 1499.26 216.007 Q 1499.26 204.457 1507.345 196.702 Q 1515.43 188.947 1527.64 188.947 Q 1539.85 188.947 1547.935 196.702 Q 1556.02 204.457 1556.02 216.007 Q 1556.02 227.557 1547.935 235.312 Q 1539.85 243.067 1527.64 243.067 Z M 1550.41 264.847 L 1550.41 447.667 L 1504.21 447.667 L 1504.21 264.847 Z M 1649.731 302.797 L 1649.731 391.237 Q 1649.731 400.477 1654.186 404.602 Q 1658.641 408.727 1669.201 408.727 L 1690.651 408.727 L 1690.651 447.667 L 1661.611 447.667 Q 1603.201 447.667 1603.201 390.907 L 1603.201 302.797 L 1581.421 302.797 L 1581.421 264.847 L 1603.201 264.847 L 1603.201 219.637 L 1649.731 219.637 L 1649.731 264.847 L 1690.651 264.847 L 1690.651 302.797 Z M 1898.867 264.847 L 1785.677 534.127 L 1736.507 534.127 L 1776.107 443.047 L 1702.847 264.847 L 1754.657 264.847 L 1801.847 392.557 L 1849.697 264.847 Z"/>
</svg>